<?xml version="1.0" encoding="UTF-8" standalone="no"?>
<svg
   version="1.1"
   width="696.90021"
   height="102.13692"
   viewBox="0 0 696.90021 102.13692"
   id="svg301"
   sodipodi:docname="logo-color.svg"
   inkscape:version="1.2.1 (9c6d41e410, 2022-07-14, custom)"
   xmlns:inkscape="http://www.inkscape.org/namespaces/inkscape"
   xmlns:sodipodi="http://sodipodi.sourceforge.net/DTD/sodipodi-0.dtd"
   xmlns="http://www.w3.org/2000/svg"
   xmlns:svg="http://www.w3.org/2000/svg">
  <defs
     id="defs305" />
  <sodipodi:namedview
     id="namedview303"
     pagecolor="#ffffff"
     bordercolor="#000000"
     borderopacity="0.25"
     inkscape:showpageshadow="2"
     inkscape:pageopacity="0.0"
     inkscape:pagecheckerboard="0"
     inkscape:deskcolor="#d1d1d1"
     showgrid="false"
     inkscape:zoom="0.871"
     inkscape:cx="203.2147"
     inkscape:cy="40.183697"
     inkscape:window-width="1914"
     inkscape:window-height="1025"
     inkscape:window-x="0"
     inkscape:window-y="0"
     inkscape:window-maximized="1"
     inkscape:current-layer="g299" />
  <g
     transform="matrix(0.7,0,0,0.7,44.981092,46.081056)"
     id="g299">
    <g
       fill="#e65728"
       data-fill-palette-color="accent"
       id="g268"
       transform="matrix(2.2107559,0,0,2.2107559,747.82027,-103.41293)">
      <path
         d="m 61.688,25.898 v 0 l -10.8,20.84 h 14.028 -0.048 0.048 0.031 L 37.676,74.456 48.322,53.759 H 34.3 34.342 34.261 L 61.688,25.898 M 50,17 C 31.778,17 17,31.778 17,50 17,68.224 31.778,83 50,83 68.224,83 83,68.224 83,50 83,31.778 68.224,17 50,17"
         fill="#000"
         data-fill-palette-color="accent"
         id="path266" />
    </g>
    <path
       d="m 12.1,0.4 q -5.85,0 -8.45,-2.9 -2.6,-2.9 -2.6,-9.35 v 0 -4.2 H 9.5 v 5.35 q 0,3.2 2.05,3.2 v 0 q 1.15,0 1.6,-0.68 0.45,-0.67 0.45,-2.27 v 0 q 0,-2.1 -0.5,-3.48 -0.5,-1.37 -1.27,-2.3 -0.78,-0.92 -2.78,-2.87 v 0 l -3.7,-3.7 q -4.3,-4.2 -4.3,-9.3 v 0 q 0,-5.5 2.53,-8.38 2.52,-2.87 7.37,-2.87 v 0 q 5.8,0 8.35,3.07 2.55,3.08 2.55,9.63 v 0 H 13.1 l -0.05,-2.95 q 0,-0.85 -0.47,-1.35 -0.48,-0.5 -1.33,-0.5 v 0 q -1,0 -1.5,0.55 -0.5,0.55 -0.5,1.5 v 0 q 0,2.1 2.4,4.35 v 0 l 5,4.8 q 1.75,1.7 2.9,3.22 1.15,1.53 1.85,3.6 0.7,2.08 0.7,4.93 v 0 q 0,6.35 -2.32,9.62 Q 17.45,0.4 12.1,0.4 Z m 23.1,0 q -5.2,0 -7.9,-3.18 -2.7,-3.17 -2.7,-8.92 v 0 -20.45 q 0,-5.55 2.7,-8.38 2.7,-2.82 7.9,-2.82 v 0 q 5.2,0 7.9,2.82 2.7,2.83 2.7,8.38 v 0 20.45 q 0,5.8 -2.7,8.95 -2.7,3.15 -7.9,3.15 z m 0,-7.9 q 1.15,0 1.55,-1 0.4,-1 0.4,-2.8 v 0 -21 q 0,-1.4 -0.38,-2.28 -0.37,-0.87 -1.52,-0.87 v 0 q -2.15,0 -2.15,3.25 v 0 20.95 q 0,1.85 0.45,2.8 Q 34,-7.5 35.2,-7.5 Z M 66.69,0 H 49.24 v -42.95 h 8.6 V -7.3 h 8.85 z M 86.84,0 H 69.09 v -42.95 h 17.2 v 8.3 h -8.45 v 8.35 h 8.1 v 8.1 h -8.1 v 9.85 h 9 z m 20.2,0 H 88.59 v -7.8 l 9.8,-27.25 h -8.85 v -7.9 h 17.95 v 7.5 L 97.44,-7.9 h 9.6 z m 13.4,0.4 q -5.2,0 -7.9,-3.18 -2.7,-3.17 -2.7,-8.92 v 0 -20.45 q 0,-5.55 2.7,-8.38 2.7,-2.82 7.9,-2.82 v 0 q 5.2,0 7.9,2.82 2.7,2.83 2.7,8.38 v 0 20.45 q 0,5.8 -2.7,8.95 -2.7,3.15 -7.9,3.15 z m 0,-7.9 q 1.15,0 1.55,-1 0.4,-1 0.4,-2.8 v 0 -21 q 0,-1.4 -0.38,-2.28 -0.37,-0.87 -1.52,-0.87 v 0 q -2.15,0 -2.15,3.25 v 0 20.95 q 0,1.85 0.45,2.8 0.45,0.95 1.65,0.95 z M 142.89,0 h -8.4 v -42.95 h 8.85 l 3.94,20.55 v -20.55 h 8.31 V 0 h -8.4 l -4.3,-21.5 z m 26.69,0.4 q -5.85,0 -8.45,-2.9 -2.6,-2.9 -2.6,-9.35 v 0 -4.2 h 8.45 v 5.35 q 0,3.2 2.05,3.2 v 0 q 1.15,0 1.6,-0.68 0.45,-0.67 0.45,-2.27 v 0 q 0,-2.1 -0.5,-3.48 -0.5,-1.37 -1.27,-2.3 -0.78,-0.92 -2.78,-2.87 v 0 l -3.7,-3.7 q -4.3,-4.2 -4.3,-9.3 v 0 q 0,-5.5 2.53,-8.38 2.52,-2.87 7.37,-2.87 v 0 q 5.8,0 8.35,3.07 2.55,3.08 2.55,9.63 v 0 h -8.75 l -0.05,-2.95 q 0,-0.85 -0.47,-1.35 -0.48,-0.5 -1.33,-0.5 v 0 q -1,0 -1.5,0.55 -0.5,0.55 -0.5,1.5 v 0 q 0,2.1 2.4,4.35 v 0 l 5,4.8 q 1.75,1.7 2.9,3.22 1.15,1.53 1.85,3.6 0.7,2.08 0.7,4.93 v 0 q 0,6.35 -2.32,9.62 -2.33,3.28 -7.68,3.28 z m 23.1,0 q -5.2,0 -7.9,-3.18 -2.7,-3.17 -2.7,-8.92 v 0 -20.45 q 0,-5.55 2.7,-8.38 2.7,-2.82 7.9,-2.82 v 0 q 5.2,0 7.9,2.82 2.7,2.83 2.7,8.38 v 0 20.45 q 0,5.8 -2.7,8.95 -2.7,3.15 -7.9,3.15 z m 0,-7.9 q 1.15,0 1.55,-1 0.4,-1 0.4,-2.8 v 0 -21 q 0,-1.4 -0.37,-2.28 -0.38,-0.87 -1.53,-0.87 v 0 q -2.15,0 -2.15,3.25 v 0 20.95 q 0,1.85 0.45,2.8 0.45,0.95 1.65,0.95 z m 31.5,7.5 h -17.45 v -42.95 h 8.6 V -7.3 h 8.85 z m 10.3,0 h -8.3 v -42.95 h 8.3 z m 13.64,0.4 q -5.85,0 -8.45,-2.9 -2.6,-2.9 -2.6,-9.35 v 0 -4.2 h 8.45 v 5.35 q 0,3.2 2.05,3.2 v 0 q 1.15,0 1.6,-0.68 0.45,-0.67 0.45,-2.27 v 0 q 0,-2.1 -0.5,-3.48 -0.5,-1.37 -1.27,-2.3 -0.78,-0.92 -2.78,-2.87 v 0 l -3.7,-3.7 q -4.3,-4.2 -4.3,-9.3 v 0 q 0,-5.5 2.53,-8.38 2.52,-2.87 7.37,-2.87 v 0 q 5.8,0 8.35,3.07 2.55,3.08 2.55,9.63 v 0 h -8.75 l -0.05,-2.95 q 0,-0.85 -0.47,-1.35 -0.48,-0.5 -1.33,-0.5 v 0 q -1,0 -1.5,0.55 -0.5,0.55 -0.5,1.5 v 0 q 0,2.1 2.4,4.35 v 0 l 5,4.8 q 1.75,1.7 2.9,3.22 1.15,1.53 1.85,3.6 0.7,2.08 0.7,4.93 v 0 q 0,6.35 -2.32,9.62 -2.33,3.28 -7.68,3.28 z"
       opacity="1"
       fill="#000"
       class="undefined-text-0"
       data-fill-palette-color="primary"
       id="path260"
       transform="matrix(3.1709874,0,0,3.1709874,-67.58824,75.221814)" />
  </g>
</svg>
